<?xml version="1.0" encoding="UTF-8"?>
<!DOCTYPE svg PUBLIC "-//W3C//DTD SVG 1.1//EN" "http://www.w3.org/Graphics/SVG/1.1/DTD/svg11.dtd">
<svg xmlns="http://www.w3.org/2000/svg" version="1.1" width="2000px" height="716px" style="shape-rendering:geometricPrecision; text-rendering:geometricPrecision; image-rendering:optimizeQuality; fill-rule:evenodd; clip-rule:evenodd" xmlns:xlink="http://www.w3.org/1999/xlink">
<g><path style="opacity:0.991" fill="#09205d" d="M 1999.5,293.5 C 1999.5,305.5 1999.5,317.5 1999.5,329.5C 1989.65,389.875 1955.98,431.042 1898.5,453C 1855.48,466.667 1811.82,469.001 1767.5,460C 1729.41,452.284 1693.74,438.45 1660.5,418.5C 1676.5,380.157 1692.5,341.824 1708.5,303.5C 1732.11,321.14 1758.11,334.307 1786.5,343C 1798.8,345.809 1811.13,346.475 1823.5,345C 1834.69,342.972 1841.36,336.472 1843.5,325.5C 1842.51,319.011 1839.18,314.178 1833.5,311C 1827.06,307.78 1820.39,305.113 1813.5,303C 1792.78,299.071 1772.45,293.738 1752.5,287C 1697.81,261.465 1675.31,218.631 1685,158.5C 1696.71,102.105 1729.88,64.2717 1784.5,45C 1849.93,27.0089 1913.26,32.6756 1974.5,62C 1980.74,65.039 1986.91,68.2057 1993,71.5C 1992.98,74.2441 1992.31,76.9107 1991,79.5C 1977.09,112.979 1962.92,146.313 1948.5,179.5C 1928.24,164.206 1905.57,154.039 1880.5,149C 1868.31,146.62 1856.31,147.286 1844.5,151C 1833.99,155.509 1830.82,163.009 1835,173.5C 1840.23,178.203 1846.07,182.037 1852.5,185C 1860.68,188.129 1869.01,190.795 1877.5,193C 1894.7,196.573 1911.7,200.906 1928.5,206C 1968.45,222.136 1992.12,251.303 1999.5,293.5 Z"/></g>
<g><path style="opacity:0.99" fill="#09205d" d="M -0.5,454.5 C -0.5,452.5 -0.5,450.5 -0.5,448.5C 22.8829,314.015 46.0496,179.348 69,44.5C 119.433,43.1698 169.933,43.1698 220.5,44.5C 239.816,117.261 259.316,189.927 279,262.5C 298.018,189.428 317.184,116.428 336.5,43.5C 387.833,43.5 439.167,43.5 490.5,43.5C 512.49,180.443 534.157,317.443 555.5,454.5C 506.833,454.5 458.167,454.5 409.5,454.5C 402.217,376.121 394.384,297.788 386,219.5C 364.823,297.206 343.49,374.872 322,452.5C 307.388,453.825 292.554,454.492 277.5,454.5C 262.594,454.496 247.761,454.163 233,453.5C 211.33,375.484 189.663,297.484 168,219.5C 160.349,297.857 152.516,376.19 144.5,454.5C 96.1667,454.5 47.8333,454.5 -0.5,454.5 Z"/></g>
<g><path style="opacity:0.987" fill="#09205d" d="M 595.5,43.5 C 645.833,43.5 696.167,43.5 746.5,43.5C 746.5,180.5 746.5,317.5 746.5,454.5C 696.167,454.5 645.833,454.5 595.5,454.5C 595.5,317.5 595.5,180.5 595.5,43.5 Z"/></g>
<g><path style="opacity:0.992" fill="#09205d" d="M 803.5,43.5 C 852.834,43.3333 902.168,43.5 951.5,44C 987.413,44.3686 1022.75,49.0353 1057.5,58C 1115.64,78.1459 1157.14,116.313 1182,172.5C 1199.24,221.6 1199.91,270.934 1184,320.5C 1157.94,383.559 1112.11,424.393 1046.5,443C 1011.24,450.431 975.572,454.098 939.5,454C 894.168,454.5 848.835,454.667 803.5,454.5C 803.5,317.5 803.5,180.5 803.5,43.5 Z M 950.5,170.5 C 1022.22,167.708 1053.05,201.708 1043,272.5C 1036.75,299.922 1019.91,316.922 992.5,323.5C 978.673,326.606 964.673,328.272 950.5,328.5C 950.5,275.833 950.5,223.167 950.5,170.5 Z"/></g>
<g><path style="opacity:0.991" fill="#09205d" d="M 1336.5,43.5 C 1391.5,43.5 1446.5,43.5 1501.5,43.5C 1548.55,180.361 1596.22,317.028 1644.5,453.5C 1591.17,454.5 1537.84,454.833 1484.5,454.5C 1480.67,437.192 1476.34,420.026 1471.5,403C 1434.83,402.5 1398.17,402.333 1361.5,402.5C 1357.67,419.823 1353.33,436.99 1348.5,454C 1295.5,454.833 1242.5,454.667 1189.5,453.5C 1238.53,316.75 1287.53,180.083 1336.5,43.5 Z M 1415.5,188.5 C 1426.05,226.841 1436.38,265.341 1446.5,304C 1426.49,304.833 1406.49,304.666 1386.5,303.5C 1396.64,265.275 1406.31,226.942 1415.5,188.5 Z"/></g>
<g><path style="opacity:0.992" fill="#f5ba18" d="M -0.5,496.5 C 666.167,496.5 1332.83,496.5 1999.5,496.5C 1999.5,557.833 1999.5,619.167 1999.5,680.5C 1332.83,680.5 666.167,680.5 -0.5,680.5C -0.5,619.167 -0.5,557.833 -0.5,496.5 Z"/></g>
<g><path style="opacity:1" fill="#0c215c" d="M 987.5,609.5 C 987.56,610.043 987.893,610.376 988.5,610.5C 989.5,584.509 989.833,558.509 989.5,532.5C 994.833,532.5 1000.17,532.5 1005.5,532.5C 1005.67,571.501 1005.5,610.501 1005,649.5C 981.137,625.969 956.97,602.802 932.5,580C 929,575.833 925.5,571.667 922,567.5C 921.5,593.498 921.333,619.498 921.5,645.5C 915.833,645.5 910.167,645.5 904.5,645.5C 904.333,606.499 904.5,567.499 905,528.5C 933.39,554.725 960.89,581.725 987.5,609.5 Z"/></g>
<g><path style="opacity:1" fill="#0d225c" d="M 1429.5,529.5 C 1446.33,545.828 1463.33,561.994 1480.5,578C 1491.36,588.529 1501.86,599.363 1512,610.5C 1512.5,584.502 1512.67,558.502 1512.5,532.5C 1518.17,532.5 1523.83,532.5 1529.5,532.5C 1529.67,571.501 1529.5,610.501 1529,649.5C 1510.5,632 1492,614.5 1473.5,597C 1463.93,587.933 1454.93,578.433 1446.5,568.5C 1446.44,567.957 1446.11,567.624 1445.5,567.5C 1444.5,593.491 1444.17,619.491 1444.5,645.5C 1439.17,645.5 1433.83,645.5 1428.5,645.5C 1428.17,606.663 1428.5,567.996 1429.5,529.5 Z"/></g>
<g><path style="opacity:1" fill="#0f225c" d="M 217.5,529.5 C 230.036,528.631 241.203,531.964 251,539.5C 252.914,541.748 254.414,544.248 255.5,547C 254.66,548.767 253.327,550.101 251.5,551C 248.456,552.404 245.456,553.904 242.5,555.5C 239.085,551.622 235.085,548.455 230.5,546C 215.966,543.223 208.799,549.056 209,563.5C 211.114,567.948 214.281,571.448 218.5,574C 229.75,578.959 240.417,584.959 250.5,592C 259.057,600.455 261.89,610.622 259,622.5C 254.98,636.519 245.813,645.019 231.5,648C 216.776,651.035 203.943,647.535 193,637.5C 189.691,633.588 187.525,629.088 186.5,624C 190.748,620.851 195.414,618.351 200.5,616.5C 203.936,626.616 210.936,631.616 221.5,631.5C 238.534,630.764 244.034,622.431 238,606.5C 236.127,604.291 233.96,602.458 231.5,601C 220.218,596.027 209.551,590.027 199.5,583C 191.192,575.288 188.025,565.788 190,554.5C 193.973,540.357 203.139,532.024 217.5,529.5 Z"/></g>
<g><path style="opacity:1" fill="#0f225c" d="M 331.5,529.5 C 362.015,527.661 383.848,540.328 397,567.5C 406.166,597.671 397.999,621.838 372.5,640C 348.313,652.447 324.979,651.113 302.5,636C 277.184,612.456 273.018,585.623 290,555.5C 300.618,541.612 314.451,532.946 331.5,529.5 Z"/></g>
<g><path style="opacity:1" fill="#0e225c" d="M 811.5,529.5 C 841.276,528.632 862.443,541.632 875,568.5C 883.712,600.219 874.212,624.719 846.5,642C 811.105,656.338 783.272,647.504 763,615.5C 750.113,579.146 760.613,551.979 794.5,534C 800.1,531.736 805.767,530.236 811.5,529.5 Z"/></g>
<g><path style="opacity:1" fill="#0f225c" d="M 1060.5,529.5 C 1069.86,528.924 1078.86,530.424 1087.5,534C 1093.56,537.058 1097.89,541.725 1100.5,548C 1096.02,550.74 1091.36,553.24 1086.5,555.5C 1079.3,545.277 1069.97,542.777 1058.5,548C 1050.51,555.625 1050.51,563.292 1058.5,571C 1070.27,577.386 1081.93,584.053 1093.5,591C 1102.68,599.209 1105.85,609.376 1103,621.5C 1099.29,636.541 1089.79,645.374 1074.5,648C 1060.17,650.733 1047.67,647.233 1037,637.5C 1034.02,633.214 1031.86,628.547 1030.5,623.5C 1034.92,620.796 1039.59,618.463 1044.5,616.5C 1052.11,632.074 1063.78,635.908 1079.5,628C 1087.96,615.824 1085.63,606.158 1072.5,599C 1061.41,594.29 1051.08,588.29 1041.5,581C 1029.77,564.837 1031.11,549.837 1045.5,536C 1050.31,533.129 1055.31,530.963 1060.5,529.5 Z"/></g>
<g><path style="opacity:1" fill="#0f225c" d="M 1265.5,529.5 C 1281.71,528.473 1296.71,532.14 1310.5,540.5C 1311.83,546.833 1311.83,553.167 1310.5,559.5C 1293.08,545.228 1274.08,542.728 1253.5,552C 1235.1,566.055 1229.6,584.222 1237,606.5C 1248.24,629.127 1266.08,636.627 1290.5,629C 1297.87,626.566 1304.37,622.733 1310,617.5C 1310.67,624.5 1310.67,631.5 1310,638.5C 1296.04,647.027 1280.87,650.194 1264.5,648C 1239,642.831 1222.83,627.665 1216,602.5C 1211.71,563.677 1228.21,539.344 1265.5,529.5 Z"/></g>
<g><path style="opacity:1" fill="#575346" d="M 1429.5,529.5 C 1428.5,567.996 1428.17,606.663 1428.5,645.5C 1427.17,606.665 1427.17,567.665 1428.5,528.5C 1429.11,528.624 1429.44,528.957 1429.5,529.5 Z"/></g>
<g><path style="opacity:1" fill="#0b215c" d="M 427.5,532.5 C 433.5,532.5 439.5,532.5 445.5,532.5C 445.5,564.833 445.5,597.167 445.5,629.5C 459.167,629.5 472.833,629.5 486.5,629.5C 486.5,634.833 486.5,640.167 486.5,645.5C 466.833,645.5 447.167,645.5 427.5,645.5C 427.5,607.833 427.5,570.167 427.5,532.5 Z"/></g>
<g><path style="opacity:1" fill="#0d225c" d="M 503.5,532.5 C 509.5,532.5 515.5,532.5 521.5,532.5C 521.333,558.169 521.5,583.835 522,609.5C 524.811,624.813 533.978,632.147 549.5,631.5C 563.741,632.415 572.908,626.081 577,612.5C 578.436,585.867 578.936,559.2 578.5,532.5C 584.5,532.5 590.5,532.5 596.5,532.5C 596.667,558.169 596.5,583.835 596,609.5C 592.405,637.405 576.405,650.405 548,648.5C 522.545,649.464 507.879,637.464 504,612.5C 503.5,585.835 503.333,559.169 503.5,532.5 Z"/></g>
<g><path style="opacity:1" fill="#0f225c" d="M 645.5,645.5 C 645.5,612.833 645.5,580.167 645.5,547.5C 635.167,547.5 624.833,547.5 614.5,547.5C 614.5,542.5 614.5,537.5 614.5,532.5C 640.833,532.5 667.167,532.5 693.5,532.5C 693.5,537.5 693.5,542.5 693.5,547.5C 683.5,547.5 673.5,547.5 663.5,547.5C 663.5,580.167 663.5,612.833 663.5,645.5C 657.5,645.5 651.5,645.5 645.5,645.5 Z"/></g>
<g><path style="opacity:1" fill="#09215d" d="M 712.5,532.5 C 718.5,532.5 724.5,532.5 730.5,532.5C 730.5,570.167 730.5,607.833 730.5,645.5C 724.5,645.5 718.5,645.5 712.5,645.5C 712.5,607.833 712.5,570.167 712.5,532.5 Z"/></g>
<g><path style="opacity:1" fill="#0b215c" d="M 1401.5,547.5 C 1386.5,547.5 1371.5,547.5 1356.5,547.5C 1356.17,557.348 1356.51,567.014 1357.5,576.5C 1372.17,576.5 1386.83,576.5 1401.5,576.5C 1401.5,581.833 1401.5,587.167 1401.5,592.5C 1386.5,592.5 1371.5,592.5 1356.5,592.5C 1356.5,604.833 1356.5,617.167 1356.5,629.5C 1371.5,629.5 1386.5,629.5 1401.5,629.5C 1401.5,634.833 1401.5,640.167 1401.5,645.5C 1380.5,645.5 1359.5,645.5 1338.5,645.5C 1338.5,607.833 1338.5,570.167 1338.5,532.5C 1359.5,532.5 1380.5,532.5 1401.5,532.5C 1401.5,537.5 1401.5,542.5 1401.5,547.5 Z"/></g>
<g><path style="opacity:1" fill="#09205d" d="M 1626.5,547.5 C 1616.5,547.5 1606.5,547.5 1596.5,547.5C 1596.5,580.167 1596.5,612.833 1596.5,645.5C 1590.5,645.5 1584.5,645.5 1578.5,645.5C 1578.5,612.833 1578.5,580.167 1578.5,547.5C 1568.5,547.5 1558.5,547.5 1548.5,547.5C 1548.5,542.5 1548.5,537.5 1548.5,532.5C 1574.5,532.5 1600.5,532.5 1626.5,532.5C 1626.5,537.5 1626.5,542.5 1626.5,547.5 Z"/></g>
<g><path style="opacity:1" fill="#0f225c" d="M 1645.5,532.5 C 1666.5,532.5 1687.5,532.5 1708.5,532.5C 1708.5,537.5 1708.5,542.5 1708.5,547.5C 1693.5,547.5 1678.5,547.5 1663.5,547.5C 1663.17,557.348 1663.51,567.014 1664.5,576.5C 1679.5,576.5 1694.5,576.5 1709.5,576.5C 1709.5,581.833 1709.5,587.167 1709.5,592.5C 1694.5,592.5 1679.5,592.5 1664.5,592.5C 1664.5,604.833 1664.5,617.167 1664.5,629.5C 1679.17,629.5 1693.83,629.5 1708.5,629.5C 1708.5,634.833 1708.5,640.167 1708.5,645.5C 1687.5,645.5 1666.5,645.5 1645.5,645.5C 1645.5,607.833 1645.5,570.167 1645.5,532.5 Z"/></g>
<g><path style="opacity:1" fill="#0d225c" d="M 1735.5,532.5 C 1747.5,532.333 1759.5,532.5 1771.5,533C 1785.94,533.444 1795.11,540.61 1799,554.5C 1800.79,565.186 1799.13,575.186 1794,584.5C 1788.67,590.08 1782.17,593.413 1774.5,594.5C 1786.97,611.475 1799.64,628.308 1812.5,645C 1805.5,645.667 1798.5,645.667 1791.5,645C 1779.38,627.718 1766.71,610.885 1753.5,594.5C 1752.5,611.487 1752.17,628.487 1752.5,645.5C 1746.83,645.5 1741.17,645.5 1735.5,645.5C 1735.5,607.833 1735.5,570.167 1735.5,532.5 Z"/></g>
<g><path style="opacity:1" fill="#8c7636" d="M 989.5,532.5 C 989.833,558.509 989.5,584.509 988.5,610.5C 987.893,610.376 987.56,610.043 987.5,609.5C 988.167,583.833 988.833,558.167 989.5,532.5 Z"/></g>
<g><path style="opacity:1" fill="#f4ba18" d="M 333.5,546.5 C 357.717,545.519 373.55,556.519 381,579.5C 384.254,606.179 373.087,623.346 347.5,631C 322.704,633.196 306.87,622.363 300,598.5C 296.86,571.749 308.027,554.415 333.5,546.5 Z"/></g>
<g><path style="opacity:1" fill="#f4b919" d="M 810.5,546.5 C 843.764,546.597 859.931,563.264 859,596.5C 852.128,621.694 835.628,633.194 809.5,631C 785.976,623.455 775.142,607.289 777,582.5C 780.781,563.554 791.948,551.554 810.5,546.5 Z"/></g>
<g><path style="opacity:1" fill="#937a36" d="M 1645.5,532.5 C 1666.66,531.503 1687.99,531.169 1709.5,531.5C 1709.5,537.167 1709.5,542.833 1709.5,548.5C 1694.5,548.5 1679.5,548.5 1664.5,548.5C 1664.5,557.833 1664.5,567.167 1664.5,576.5C 1663.51,567.014 1663.17,557.348 1663.5,547.5C 1678.5,547.5 1693.5,547.5 1708.5,547.5C 1708.5,542.5 1708.5,537.5 1708.5,532.5C 1687.5,532.5 1666.5,532.5 1645.5,532.5 Z"/></g>
<g><path style="opacity:1" fill="#f2b81a" d="M 1753.5,548.5 C 1760.7,547.945 1767.7,548.778 1774.5,551C 1783.45,559.647 1783.79,568.647 1775.5,578C 1768.36,580.178 1761.02,581.011 1753.5,580.5C 1753.5,569.833 1753.5,559.167 1753.5,548.5 Z"/></g>
<g><path style="opacity:1" fill="#71643e" d="M 614.5,547.5 C 624.833,547.5 635.167,547.5 645.5,547.5C 645.5,580.167 645.5,612.833 645.5,645.5C 644.502,613.338 644.168,581.004 644.5,548.5C 634.319,548.827 624.319,548.494 614.5,547.5 Z"/></g>
<g><path style="opacity:1" fill="#887338" d="M 1401.5,547.5 C 1387.01,548.496 1372.34,548.829 1357.5,548.5C 1357.5,557.833 1357.5,567.167 1357.5,576.5C 1356.51,567.014 1356.17,557.348 1356.5,547.5C 1371.5,547.5 1386.5,547.5 1401.5,547.5 Z"/></g>
<g><path style="opacity:1" fill="#9d8131" d="M 1626.5,547.5 C 1617.01,548.494 1607.35,548.827 1597.5,548.5C 1597.83,581.004 1597.5,613.338 1596.5,645.5C 1596.5,612.833 1596.5,580.167 1596.5,547.5C 1606.5,547.5 1616.5,547.5 1626.5,547.5 Z"/></g>
<g><path style="opacity:1" fill="#a4862f" d="M 1446.5,568.5 C 1445.83,594.167 1445.17,619.833 1444.5,645.5C 1444.17,619.491 1444.5,593.491 1445.5,567.5C 1446.11,567.624 1446.44,567.957 1446.5,568.5 Z"/></g>
<g><path style="opacity:1" fill="#a38531" d="M 1708.5,629.5 C 1709.49,634.975 1709.82,640.642 1709.5,646.5C 1687.99,646.831 1666.66,646.497 1645.5,645.5C 1666.5,645.5 1687.5,645.5 1708.5,645.5C 1708.5,640.167 1708.5,634.833 1708.5,629.5 Z"/></g>
</svg>
