<?xml version="1.0" standalone="no"?>
<!DOCTYPE svg PUBLIC "-//W3C//DTD SVG 20010904//EN"
 "http://www.w3.org/TR/2001/REC-SVG-20010904/DTD/svg10.dtd">
<svg version="1.0" xmlns="http://www.w3.org/2000/svg"
 width="1197.000000pt" height="417.000000pt" viewBox="0 0 1197.000000 417.000000"
 preserveAspectRatio="xMidYMid meet">

<g transform="translate(0.000000,417.000000) scale(0.100000,-0.100000)"
fill="#000000" stroke="none">
<path d="M10955 3980 c-358 -35 -657 -222 -789 -495 -67 -138 -81 -203 -81
-385 0 -137 3 -163 24 -229 33 -100 108 -210 190 -278 91 -75 201 -126 351
-163 204 -49 273 -70 318 -97 77 -44 88 -118 26 -172 -42 -38 -81 -45 -202
-38 -103 5 -187 30 -307 89 -57 29 -196 112 -241 143 -20 14 -22 12 -54 -67
-18 -46 -39 -96 -46 -113 -7 -16 -42 -102 -78 -190 -35 -88 -78 -193 -95 -232
l-30 -73 117 -58 c300 -149 554 -212 855 -212 347 0 605 97 812 306 172 173
259 415 241 670 -12 173 -67 295 -187 415 -105 106 -204 154 -434 209 -200 48
-287 79 -338 121 -31 25 -37 37 -37 68 0 74 64 111 193 111 141 0 295 -52 442
-149 52 -34 61 -37 66 -23 4 9 64 154 133 321 70 167 126 304 124 306 -9 8
-132 66 -188 90 -252 104 -536 149 -785 125z"/>
<path d="M386 3903 c-3 -16 -28 -163 -56 -328 -28 -165 -64 -376 -80 -470 -16
-93 -59 -343 -95 -555 -36 -212 -85 -504 -110 -649 -29 -168 -45 -294 -45
-347 l0 -84 420 0 c407 0 420 1 420 19 0 17 25 272 115 1149 13 129 25 235 27
238 2 2 32 -99 67 -224 34 -125 110 -398 168 -607 58 -209 117 -424 131 -477
l27 -98 262 0 262 0 12 43 c6 23 51 186 99 362 49 176 125 453 170 615 44 162
88 320 97 350 l16 55 18 -175 c9 -96 26 -267 38 -380 12 -113 35 -338 51 -500
16 -162 32 -312 36 -332 l6 -38 429 0 c337 0 429 3 429 13 0 15 -11 85 -105
672 -42 264 -87 548 -100 630 -13 83 -33 206 -44 275 -11 69 -33 213 -50 320
-17 107 -44 274 -59 370 l-27 175 -461 3 -460 2 -37 -142 c-20 -79 -57 -219
-82 -313 -55 -207 -120 -452 -181 -685 -25 -96 -47 -176 -48 -178 -2 -1 -18
53 -35 120 -61 230 -169 635 -261 982 -27 105 -50 196 -50 203 0 11 -87 13
-454 13 l-454 0 -6 -27z"/>
<path d="M3550 2700 l0 -1230 450 0 450 0 0 1230 0 1230 -450 0 -450 0 0
-1230z"/>
<path d="M4800 2700 l0 -1233 513 6 c593 6 713 15 932 69 393 95 728 406 844
783 35 113 51 229 51 375 0 158 -18 275 -61 404 -128 383 -469 681 -879 770
-198 42 -289 48 -852 53 l-548 5 0 -1232z m1036 465 c78 -5 165 -32 229 -70
202 -118 249 -499 88 -713 -29 -39 -107 -91 -175 -116 -55 -20 -203 -46 -265
-46 l-43 0 0 473 c0 261 3 477 6 480 4 3 25 4 48 2 22 -2 73 -7 112 -10z"/>
<path d="M7942 3788 c-28 -79 -128 -359 -222 -623 -194 -543 -401 -1123 -485
-1360 -31 -88 -69 -195 -86 -238 -16 -43 -29 -83 -29 -88 0 -6 188 -8 472 -7
l472 3 28 115 c15 63 33 132 38 153 l11 37 333 0 333 0 39 -152 39 -153 473
-3 c259 -1 472 1 472 4 0 4 -39 118 -86 253 -47 135 -119 341 -159 456 -210
602 -359 1028 -445 1275 -39 113 -92 265 -118 338 l-46 132 -492 0 -492 0 -50
-142z m577 -895 c24 -93 63 -243 87 -335 24 -92 44 -172 44 -177 0 -7 -60 -11
-180 -11 -99 0 -180 2 -180 5 0 3 25 101 55 218 30 116 70 269 87 340 18 70
35 127 39 127 3 0 25 -75 48 -167z"/>
<path d="M1254 1011 c-79 -19 -134 -81 -142 -160 -9 -102 30 -151 187 -231 94
-49 125 -85 116 -134 -17 -94 -146 -111 -214 -29 l-30 36 -41 -18 c-22 -10
-40 -22 -40 -28 0 -28 50 -92 90 -115 39 -23 56 -27 125 -27 64 0 89 5 122 23
62 32 96 89 101 167 7 100 -27 144 -163 215 -102 52 -135 84 -135 126 0 53 29
79 88 79 42 0 56 -5 80 -28 l30 -29 41 21 c22 12 41 26 41 31 0 5 -17 27 -37
48 -50 53 -135 73 -219 53z"/>
<path d="M1940 1009 c-66 -13 -146 -57 -191 -107 -168 -182 -111 -464 116
-569 51 -24 73 -28 150 -28 78 0 98 4 150 28 140 66 223 201 213 347 -12 159
-117 284 -274 325 -64 16 -96 17 -164 4z m177 -120 c54 -26 116 -96 131 -147
65 -215 -135 -401 -336 -312 -113 49 -169 183 -130 313 16 53 92 134 143 152
60 21 141 19 192 -6z"/>
<path d="M4793 1005 c-114 -32 -196 -98 -242 -195 -23 -48 -26 -68 -26 -155 0
-86 3 -107 25 -150 33 -68 108 -141 178 -173 48 -22 71 -26 152 -26 85 -1 101
2 155 28 129 63 206 181 206 316 0 79 -6 110 -38 173 -71 143 -257 225 -410
182z m198 -122 c209 -107 167 -421 -63 -473 -128 -28 -260 62 -288 195 -44
210 163 373 351 278z"/>
<path d="M5400 671 l0 -351 50 0 50 0 0 233 -1 232 248 -242 c136 -134 251
-243 256 -243 4 0 7 158 7 350 l0 350 -50 0 -50 0 0 -234 0 -234 -107 107
c-169 167 -377 367 -390 375 -10 6 -13 -66 -13 -343z"/>
<path d="M6308 1006 c-82 -30 -122 -76 -134 -152 -13 -91 39 -157 183 -232
118 -61 144 -103 108 -172 -39 -76 -189 -53 -218 33 -2 8 -17 6 -50 -7 l-47
-18 15 -36 c55 -135 263 -167 371 -58 74 74 82 189 19 264 -13 16 -70 53 -125
82 -144 76 -171 120 -111 181 44 43 111 38 152 -13 15 -19 16 -19 62 3 l46 23
-17 29 c-38 65 -172 104 -254 73z"/>
<path d="M7544 1010 c-108 -23 -222 -119 -257 -217 -66 -186 4 -374 171 -455
62 -30 75 -33 167 -33 90 0 106 3 158 28 l57 28 0 64 0 64 -56 -34 c-48 -29
-127 -55 -168 -55 -36 0 -121 35 -153 63 -129 114 -104 346 47 422 84 43 237
27 301 -31 11 -9 21 -15 23 -13 11 11 9 99 -3 113 -35 43 -200 75 -287 56z"/>
<path d="M8540 670 l0 -350 50 0 50 0 0 233 0 233 138 -135 c76 -75 190 -187
255 -250 l117 -114 0 356 0 357 -50 0 -50 0 0 -233 0 -232 -237 232 c-131 129
-246 238 -255 244 -17 9 -18 -10 -18 -341z"/>
<path d="M2530 660 l0 -340 180 0 180 0 0 50 0 50 -120 0 -120 0 0 290 0 290
-60 0 -60 0 0 -340z"/>
<path d="M2992 742 l3 -258 30 -59 c25 -47 40 -63 85 -89 52 -29 61 -31 160
-31 90 0 112 3 153 24 26 12 59 38 73 57 47 62 54 107 54 371 l0 243 -55 0
-55 0 0 -227 c0 -126 -5 -244 -10 -264 -30 -109 -203 -145 -282 -59 -42 45
-48 87 -48 328 l0 222 -56 0 -55 0 3 -258z"/>
<path d="M3660 955 l0 -45 90 0 90 0 0 -295 0 -295 55 0 55 0 2 293 3 292 75
2 c41 1 81 2 88 2 8 1 12 17 12 46 l0 45 -235 0 -235 0 0 -45z"/>
<path d="M4250 660 l0 -340 55 0 55 0 0 340 0 340 -55 0 -55 0 0 -340z"/>
<path d="M8000 660 l0 -340 195 0 195 0 0 50 0 50 -135 0 -135 0 0 110 0 110
136 0 135 0 -3 48 -3 47 -132 3 -133 3 0 84 0 85 135 0 135 0 0 45 0 45 -195
0 -195 0 0 -340z"/>
<path d="M9260 955 l0 -45 90 0 90 0 0 -295 0 -295 58 0 57 0 -3 262 c-2 145
0 278 3 296 l6 32 87 0 87 0 0 45 0 45 -237 0 -238 0 0 -45z"/>
<path d="M9850 660 l0 -340 190 0 190 0 0 50 0 50 -135 0 -135 0 0 110 0 110
135 0 135 0 0 50 0 50 -135 0 -135 0 0 85 0 85 135 0 135 0 0 45 0 45 -190 0
-190 0 0 -340z"/>
<path d="M10380 661 l0 -341 55 0 55 0 0 150 c0 83 3 150 8 149 4 0 56 -68
117 -150 l109 -149 63 0 63 0 -114 152 -115 153 34 12 c55 19 82 42 99 84 37
92 8 207 -62 251 -33 20 -52 23 -174 26 l-138 4 0 -341z m233 228 c49 -22 62
-100 24 -144 -18 -22 -34 -27 -85 -32 l-62 -6 0 97 0 96 50 0 c27 0 60 -5 73
-11z"/>
</g>
</svg>
