<?xml version="1.0" encoding="UTF-8"?>
<!DOCTYPE svg PUBLIC "-//W3C//DTD SVG 1.1//EN" "http://www.w3.org/Graphics/SVG/1.1/DTD/svg11.dtd">
<svg xmlns="http://www.w3.org/2000/svg" version="1.1" width="2000px" height="716px" style="shape-rendering:geometricPrecision; text-rendering:geometricPrecision; image-rendering:optimizeQuality; fill-rule:evenodd; clip-rule:evenodd" xmlns:xlink="http://www.w3.org/1999/xlink">
<g><path style="opacity:0.991" fill="#fefffe" d="M 1999.5,293.5 C 1999.5,305.5 1999.5,317.5 1999.5,329.5C 1989.65,389.875 1955.98,431.042 1898.5,453C 1855.48,466.667 1811.82,469.001 1767.5,460C 1729.41,452.284 1693.74,438.45 1660.5,418.5C 1676.5,380.157 1692.5,341.824 1708.5,303.5C 1732.11,321.14 1758.11,334.307 1786.5,343C 1798.8,345.809 1811.13,346.475 1823.5,345C 1834.69,342.972 1841.36,336.472 1843.5,325.5C 1842.51,319.011 1839.18,314.178 1833.5,311C 1827.06,307.78 1820.39,305.113 1813.5,303C 1792.78,299.071 1772.45,293.738 1752.5,287C 1697.81,261.465 1675.31,218.631 1685,158.5C 1696.71,102.105 1729.88,64.2717 1784.5,45C 1849.93,27.0089 1913.26,32.6756 1974.5,62C 1980.74,65.039 1986.91,68.2057 1993,71.5C 1992.98,74.2441 1992.31,76.9107 1991,79.5C 1977.09,112.979 1962.92,146.313 1948.5,179.5C 1928.24,164.206 1905.57,154.039 1880.5,149C 1868.31,146.62 1856.31,147.286 1844.5,151C 1833.99,155.509 1830.82,163.009 1835,173.5C 1840.23,178.203 1846.07,182.037 1852.5,185C 1860.68,188.129 1869.01,190.795 1877.5,193C 1894.7,196.573 1911.7,200.906 1928.5,206C 1968.45,222.136 1992.12,251.303 1999.5,293.5 Z"/></g>
<g><path style="opacity:0.99" fill="#fefffe" d="M -0.5,454.5 C -0.5,452.5 -0.5,450.5 -0.5,448.5C 22.8829,314.015 46.0496,179.348 69,44.5C 119.433,43.1698 169.933,43.1698 220.5,44.5C 239.816,117.261 259.316,189.927 279,262.5C 298.018,189.428 317.184,116.428 336.5,43.5C 387.833,43.5 439.167,43.5 490.5,43.5C 512.49,180.443 534.157,317.443 555.5,454.5C 506.833,454.5 458.167,454.5 409.5,454.5C 402.217,376.121 394.384,297.788 386,219.5C 364.823,297.206 343.49,374.872 322,452.5C 307.388,453.825 292.554,454.492 277.5,454.5C 262.594,454.496 247.761,454.163 233,453.5C 211.33,375.484 189.663,297.484 168,219.5C 160.349,297.857 152.516,376.19 144.5,454.5C 96.1667,454.5 47.8333,454.5 -0.5,454.5 Z"/></g>
<g><path style="opacity:0.987" fill="#fefffe" d="M 595.5,43.5 C 645.833,43.5 696.167,43.5 746.5,43.5C 746.5,180.5 746.5,317.5 746.5,454.5C 696.167,454.5 645.833,454.5 595.5,454.5C 595.5,317.5 595.5,180.5 595.5,43.5 Z"/></g>
<g><path style="opacity:0.992" fill="#fefffe" d="M 803.5,43.5 C 852.834,43.3333 902.168,43.5 951.5,44C 987.413,44.3686 1022.75,49.0353 1057.5,58C 1115.64,78.1459 1157.14,116.313 1182,172.5C 1199.24,221.6 1199.91,270.934 1184,320.5C 1157.94,383.559 1112.11,424.393 1046.5,443C 1011.24,450.431 975.572,454.098 939.5,454C 894.168,454.5 848.835,454.667 803.5,454.5C 803.5,317.5 803.5,180.5 803.5,43.5 Z M 950.5,170.5 C 1022.22,167.708 1053.05,201.708 1043,272.5C 1036.75,299.922 1019.91,316.922 992.5,323.5C 978.673,326.606 964.673,328.272 950.5,328.5C 950.5,275.833 950.5,223.167 950.5,170.5 Z"/></g>
<g><path style="opacity:0.991" fill="#fefffe" d="M 1336.5,43.5 C 1391.5,43.5 1446.5,43.5 1501.5,43.5C 1548.55,180.361 1596.22,317.028 1644.5,453.5C 1591.17,454.5 1537.84,454.833 1484.5,454.5C 1480.67,437.192 1476.34,420.026 1471.5,403C 1434.83,402.5 1398.17,402.333 1361.5,402.5C 1357.67,419.823 1353.33,436.99 1348.5,454C 1295.5,454.833 1242.5,454.667 1189.5,453.5C 1238.53,316.75 1287.53,180.083 1336.5,43.5 Z M 1415.5,188.5 C 1426.05,226.841 1436.38,265.341 1446.5,304C 1426.49,304.833 1406.49,304.666 1386.5,303.5C 1396.64,265.275 1406.31,226.942 1415.5,188.5 Z"/></g>
<g><path style="opacity:0.985" fill="#f5ba17" d="M -0.5,496.5 C 666.167,496.5 1332.83,496.5 1999.5,496.5C 1999.5,557.833 1999.5,619.167 1999.5,680.5C 1332.83,680.5 666.167,680.5 -0.5,680.5C -0.5,619.167 -0.5,557.833 -0.5,496.5 Z M 905.5,529.5 C 922.631,545.463 939.631,561.629 956.5,578C 967.697,588.863 978.53,600.029 989,611.5C 989.5,585.169 989.667,558.835 989.5,532.5C 994.833,532.5 1000.17,532.5 1005.5,532.5C 1005.67,571.168 1005.5,609.835 1005,648.5C 984.469,628.302 963.636,608.468 942.5,589C 934.95,581.952 927.95,574.452 921.5,566.5C 921.478,592.655 921.478,618.988 921.5,645.5C 916.167,645.5 910.833,645.5 905.5,645.5C 905.5,606.833 905.5,568.167 905.5,529.5 Z M 1528.5,648.5 C 1505.34,626.172 1482.01,604.006 1458.5,582C 1453.99,576.658 1449.32,571.492 1444.5,566.5C 1444.48,592.655 1444.48,618.988 1444.5,645.5C 1439.17,645.5 1433.83,645.5 1428.5,645.5C 1428.33,606.832 1428.5,568.165 1429,529.5C 1450.86,551.031 1473.03,572.198 1495.5,593C 1501.53,598.923 1507.19,605.09 1512.5,611.5C 1512.52,585.345 1512.52,559.012 1512.5,532.5C 1517.83,532.5 1523.17,532.5 1528.5,532.5C 1528.5,571.167 1528.5,609.833 1528.5,648.5 Z M 215.5,530.5 C 227.004,528.96 237.671,531.126 247.5,537C 251.016,539.871 253.683,543.371 255.5,547.5C 251.316,550.516 246.816,553.183 242,555.5C 235.595,545.547 226.762,542.714 215.5,547C 205.922,555.932 206.255,564.599 216.5,573C 223.793,577.554 231.459,581.554 239.5,585C 258.052,594.945 263.552,609.779 256,629.5C 248.464,642.276 237.131,648.609 222,648.5C 204.376,648.519 192.543,640.352 186.5,624C 190.554,621.306 194.888,619.139 199.5,617.5C 207.117,631.414 218.45,635.581 233.5,630C 244.459,619.986 244.125,610.319 232.5,601C 221.803,596.092 211.47,590.426 201.5,584C 189.351,572.623 186.851,559.456 194,544.5C 199.529,537.162 206.696,532.495 215.5,530.5 Z M 331.5,530.5 C 362.249,528.115 384.082,540.782 397,568.5C 406.503,605.994 393.337,631.828 357.5,646C 329.069,652.189 306.235,643.689 289,620.5C 276.865,597.537 277.865,575.203 292,553.5C 302.48,541.017 315.646,533.35 331.5,530.5 Z M 808.5,530.5 C 833.992,528.036 854.158,537.036 869,557.5C 878.77,575.539 880.104,594.205 873,613.5C 858.218,639.974 835.718,651.141 805.5,647C 770.347,636.539 754.847,613.039 759,576.5C 766.101,550.895 782.601,535.561 808.5,530.5 Z M 1059.5,530.5 C 1068.79,529.74 1077.79,530.906 1086.5,534C 1092.36,537.028 1096.69,541.528 1099.5,547.5C 1095.28,550.53 1090.78,553.196 1086,555.5C 1080.64,546.41 1072.81,543.243 1062.5,546C 1052.65,550.539 1050.15,557.706 1055,567.5C 1056.83,569.333 1058.67,571.167 1060.5,573C 1069.83,578 1079.17,583 1088.5,588C 1102.56,597.9 1106.72,611.067 1101,627.5C 1093.8,641.612 1082.14,648.612 1066,648.5C 1049.97,648.829 1038.63,641.829 1032,627.5C 1031.2,625.741 1031.37,624.074 1032.5,622.5C 1036.63,620.234 1040.97,618.568 1045.5,617.5C 1048.78,627.42 1055.78,632.42 1066.5,632.5C 1079.97,631.864 1086.14,624.864 1085,611.5C 1083.23,607.136 1080.4,603.636 1076.5,601C 1065.36,595.867 1054.69,589.867 1044.5,583C 1035.32,574.791 1032.15,564.624 1035,552.5C 1038.74,540.216 1046.91,532.883 1059.5,530.5 Z M 1264.5,530.5 C 1281.45,528.387 1296.95,532.053 1311,541.5C 1311.13,547.168 1310.8,552.835 1310,558.5C 1292.91,545.301 1274.41,542.801 1254.5,551C 1240.49,559.681 1233.49,572.347 1233.5,589C 1234.3,612.798 1246.3,627.131 1269.5,632C 1284.91,633.085 1298.41,628.585 1310,618.5C 1310.67,624.833 1310.67,631.167 1310,637.5C 1301.89,643.631 1292.73,647.131 1282.5,648C 1248.93,650.046 1227.09,635.213 1217,603.5C 1211.61,573.794 1221.78,551.294 1247.5,536C 1253.14,533.682 1258.8,531.849 1264.5,530.5 Z M 427.5,532.5 C 433.167,532.5 438.833,532.5 444.5,532.5C 444.5,564.833 444.5,597.167 444.5,629.5C 458.5,629.5 472.5,629.5 486.5,629.5C 486.5,634.833 486.5,640.167 486.5,645.5C 466.833,645.5 447.167,645.5 427.5,645.5C 427.5,607.833 427.5,570.167 427.5,532.5 Z M 503.5,532.5 C 509.509,532.334 515.509,532.501 521.5,533C 520.339,557.094 520.173,581.261 521,605.5C 523.697,626.288 535.531,635.121 556.5,632C 567.119,630.049 573.952,623.882 577,613.5C 578.465,586.551 578.965,559.551 578.5,532.5C 584.167,532.5 589.833,532.5 595.5,532.5C 595.667,559.502 595.5,586.502 595,613.5C 592.898,629.893 584.065,640.726 568.5,646C 551.517,650.431 535.183,648.764 519.5,641C 509.666,632.832 504.5,622.332 504,609.5C 503.5,583.835 503.333,558.169 503.5,532.5 Z M 615.5,532.5 C 641.167,532.5 666.833,532.5 692.5,532.5C 692.5,537.5 692.5,542.5 692.5,547.5C 682.5,547.5 672.5,547.5 662.5,547.5C 662.5,580.167 662.5,612.833 662.5,645.5C 656.833,645.5 651.167,645.5 645.5,645.5C 645.5,612.833 645.5,580.167 645.5,547.5C 635.5,547.5 625.5,547.5 615.5,547.5C 615.5,542.5 615.5,537.5 615.5,532.5 Z M 712.5,532.5 C 718.5,532.5 724.5,532.5 730.5,532.5C 730.5,570.167 730.5,607.833 730.5,645.5C 724.463,645.829 718.463,645.496 712.5,644.5C 713.827,607.167 713.827,569.833 712.5,532.5 Z M 1339.5,532.5 C 1360.17,532.5 1380.83,532.5 1401.5,532.5C 1401.5,537.5 1401.5,542.5 1401.5,547.5C 1386.5,547.5 1371.5,547.5 1356.5,547.5C 1356.5,557.167 1356.5,566.833 1356.5,576.5C 1371.5,576.5 1386.5,576.5 1401.5,576.5C 1401.5,581.5 1401.5,586.5 1401.5,591.5C 1386.5,591.5 1371.5,591.5 1356.5,591.5C 1356.5,604.167 1356.5,616.833 1356.5,629.5C 1371.5,629.5 1386.5,629.5 1401.5,629.5C 1401.5,634.833 1401.5,640.167 1401.5,645.5C 1380.83,645.5 1360.17,645.5 1339.5,645.5C 1339.5,607.833 1339.5,570.167 1339.5,532.5 Z M 1548.5,532.5 C 1574.5,532.5 1600.5,532.5 1626.5,532.5C 1626.5,537.5 1626.5,542.5 1626.5,547.5C 1616.5,547.5 1606.5,547.5 1596.5,547.5C 1596.5,580.167 1596.5,612.833 1596.5,645.5C 1590.5,645.5 1584.5,645.5 1578.5,645.5C 1578.5,612.833 1578.5,580.167 1578.5,547.5C 1568.5,547.5 1558.5,547.5 1548.5,547.5C 1548.5,542.5 1548.5,537.5 1548.5,532.5 Z M 1646.5,532.5 C 1667.17,532.5 1687.83,532.5 1708.5,532.5C 1708.5,537.5 1708.5,542.5 1708.5,547.5C 1693.5,547.5 1678.5,547.5 1663.5,547.5C 1663.5,557.167 1663.5,566.833 1663.5,576.5C 1678.5,576.5 1693.5,576.5 1708.5,576.5C 1708.5,581.5 1708.5,586.5 1708.5,591.5C 1693.5,591.5 1678.5,591.5 1663.5,591.5C 1663.5,604.167 1663.5,616.833 1663.5,629.5C 1678.5,629.5 1693.5,629.5 1708.5,629.5C 1708.5,634.833 1708.5,640.167 1708.5,645.5C 1687.83,645.5 1667.17,645.5 1646.5,645.5C 1646.5,607.833 1646.5,570.167 1646.5,532.5 Z M 1735.5,532.5 C 1745.84,532.334 1756.17,532.5 1766.5,533C 1790.48,533.989 1801.32,546.489 1799,570.5C 1796.18,584.488 1787.68,592.488 1773.5,594.5C 1786.62,611.243 1799.62,628.076 1812.5,645C 1805.83,645.667 1799.17,645.667 1792.5,645C 1780.08,628.154 1767.41,611.487 1754.5,595C 1753.55,594.517 1752.55,594.351 1751.5,594.5C 1751.5,611.5 1751.5,628.5 1751.5,645.5C 1746.17,645.5 1740.83,645.5 1735.5,645.5C 1735.5,607.833 1735.5,570.167 1735.5,532.5 Z"/></g>
<g><path style="opacity:0.996" fill="#f5ba17" d="M 332.5,546.5 C 354.174,544.414 369.674,553.081 379,572.5C 386.364,594.404 380.864,612.237 362.5,626C 337.88,637.72 318.047,632.22 303,609.5C 293.12,584.159 299.62,564.325 322.5,550C 325.85,548.514 329.184,547.347 332.5,546.5 Z"/></g>
<g><path style="opacity:0.997" fill="#f5ba17" d="M 809.5,546.5 C 834.815,544.4 851.315,555.4 859,579.5C 862.245,607.874 850.078,625.374 822.5,632C 794.392,631.731 778.726,617.564 775.5,589.5C 777.259,567.425 788.593,553.092 809.5,546.5 Z"/></g>
<g><path style="opacity:0.984" fill="#f4ba17" d="M 1752.5,547.5 C 1760.47,546.867 1768.13,548.034 1775.5,551C 1779.83,554.638 1781.83,559.305 1781.5,565C 1782.01,571.177 1779.67,575.844 1774.5,579C 1767.28,580.817 1759.95,581.651 1752.5,581.5C 1752.5,570.167 1752.5,558.833 1752.5,547.5 Z"/></g>
</svg>
